<svg xmlns="http://www.w3.org/2000/svg" width="240" height="66" viewBox="0 0 240 66">
  <g id="Groupe_8674" data-name="Groupe 8674" transform="translate(0 0)">
    <g id="Groupe_3892" data-name="Groupe 3892" transform="translate(0 2.224)">
      <path id="Tracé_121" data-name="Tracé 121" d="M56.779,46.266,38.106,27.547c-8.955,8.963-17.562,18.087-26.7,27.232-1.429-1.535-2.648-2.707-4.035-4.2,5.346-5.264,15.769-16.636,15.769-16.636s-2.844-4.557-4-4.54S9.123,40.432,3.736,45.267A30.181,30.181,0,0,1,10.562,7.419,30.585,30.585,0,0,1,56.779,46.266M54.522,35.229a24.221,24.221,0,0,0-10.35-24.973,24.557,24.557,0,0,0-29.221,1.4c-8.161,6.654-10,17.126-8.479,22.61C10.692,30,17.665,21.426,19.14,21.468s5.421,5.484,8.319,8.415c3.59-3.642,8.829-10.786,10.8-10.956s10.793,10.817,16.265,16.3" transform="translate(0.144 -0.001)" fill="#3159de"/>
      <path id="Tracé_122" data-name="Tracé 122" d="M66.947,213.587c1.4-1.375,4.06-4.713,4.367-4.6,11.068,4.606,18.423,2.438,26.073-3.51l4.144,4.187c-8.455,8.386-23.8,10.2-34.584,3.919" transform="translate(-50.806 -156.095)" fill="#439250"/>
    </g>
    <text id="MyNimba" transform="translate(72.093 44)" font-size="39" font-family="Dubai-Bold, Dubai" font-weight="700"><tspan x="0" y="0">MyNimba</tspan></text>
  </g>
</svg>
