<svg xmlns="http://www.w3.org/2000/svg" width="180" height="135.853" viewBox="0 0 180 135.853">
  <g id="Groupe_8674" data-name="Groupe 8674" transform="translate(40 -2.092)">
    <g id="Groupe_3892" data-name="Groupe 3892" transform="translate(13 2.092)">
      <path id="Tracé_121" data-name="Tracé 121" d="M61.064,49.749,40.986,29.62C31.357,39.258,22.1,49.069,12.277,58.9c-1.536-1.65-2.848-2.911-4.338-4.512C13.686,48.73,24.894,36.5,24.894,36.5s-3.059-4.9-4.3-4.882S9.82,43.476,4.028,48.674a32.453,32.453,0,0,1,7.341-40.7,32.888,32.888,0,0,1,49.7,41.772M58.638,37.881c1.906-8.094-.809-19.88-11.129-26.853a26.406,26.406,0,0,0-31.421,1.5C7.312,19.688,5.339,30.948,6.97,36.845c4.538-4.585,12.036-13.805,13.622-13.76s5.83,5.9,8.945,9.049c3.86-3.916,9.493-11.6,11.612-11.78S52.754,31.985,58.638,37.881" transform="translate(0.144 -0.001)" fill="#fff"/>
      <path id="Tracé_122" data-name="Tracé 122" d="M66.947,214.2c1.5-1.479,4.365-5.067,4.7-4.942,11.9,4.953,19.81,2.622,28.036-3.774l4.456,4.5c-9.092,9.017-25.59,10.97-37.187,4.214" transform="translate(-49.591 -152.377)" fill="#fff"/>
    </g>
    <text id="MyNimba" transform="translate(-40 114.944)" fill="#fff" font-size="42" font-family="Dubai-Bold, Dubai" font-weight="700"><tspan x="0" y="0">MyNimba</tspan></text>
  </g>
</svg>
