<svg xmlns="http://www.w3.org/2000/svg" xmlns:xlink="http://www.w3.org/1999/xlink" width="1920" height="547" viewBox="90 0 1920 547">
  <defs>
    <linearGradient id="linear-gradient" x1="0.5" x2="0.5" y2="1" gradientUnits="objectBoundingBox">
      <stop offset="0" stop-color="#439250"/>
      <stop offset="1" stop-color="#3159de"/>
    </linearGradient>
  </defs>
  <g id="Groupe_8922" data-name="Groupe 8922" transform="translate(82.146 -7361)">
    <rect id="Rectangle_2400" data-name="Rectangle 2400" width="1920" height="547" transform="translate(0.539 7361)" fill="url(#linear-gradient)"/>
    <g id="Groupe_8824" data-name="Groupe 8824" transform="translate(1674.854 7652)" opacity="0.04">
      <path id="Tracé_121" data-name="Tracé 121" d="M315.876,256.855c-34.826-34.914-69.2-69.376-103.664-103.927-49.715,49.76-97.5,100.413-148.227,151.187-7.931-8.52-14.7-15.03-22.4-23.3,29.677-29.226,87.543-92.359,87.543-92.359s-15.792-25.3-22.213-25.2S51.3,224.464,21.393,251.3c-35.619-61.458-29.739-151.78,37.9-210.121a169.458,169.458,0,0,1,223.019,1.36c66.482,58.688,72.365,151.075,33.564,214.311M303.349,195.58c9.841-41.787-4.177-102.642-57.462-138.643C196.238,23.391,130.157,26.789,83.659,64.7c-45.307,36.942-55.5,95.077-47.075,125.523,23.431-23.671,62.143-71.278,70.331-71.044s30.1,30.448,46.183,46.72c19.93-20.218,49.015-59.879,59.954-60.823s59.921,60.056,90.3,90.5" transform="translate(0.144 -0.001)" fill="#fff"/>
      <path id="Tracé_122" data-name="Tracé 122" d="M66.947,250.482c7.753-7.636,22.537-26.163,24.243-25.515,61.449,25.571,102.282,13.535,144.751-19.486,7.566,7.644,15.286,15.445,23.008,23.245-46.941,46.555-132.122,56.638-192,21.755" transform="translate(22.661 68.698)" fill="#fff"/>
    </g>
    <g id="Groupe_8827" data-name="Groupe 8827" transform="translate(-82.146 7652)" opacity="0.04">
      <path id="Tracé_121-2" data-name="Tracé 121" d="M315.876,256.855c-34.826-34.914-69.2-69.376-103.664-103.927-49.715,49.76-97.5,100.413-148.227,151.187-7.931-8.52-14.7-15.03-22.4-23.3,29.677-29.226,87.543-92.359,87.543-92.359s-15.792-25.3-22.213-25.2S51.3,224.464,21.393,251.3c-35.619-61.458-29.739-151.78,37.9-210.121a169.458,169.458,0,0,1,223.019,1.36c66.482,58.688,72.365,151.075,33.564,214.311M303.349,195.58c9.841-41.787-4.177-102.642-57.462-138.643C196.238,23.391,130.157,26.789,83.659,64.7c-45.307,36.942-55.5,95.077-47.075,125.523,23.431-23.671,62.143-71.278,70.331-71.044s30.1,30.448,46.183,46.72c19.93-20.218,49.015-59.879,59.954-60.823s59.921,60.056,90.3,90.5" transform="translate(0.144 -0.001)" fill="#fff"/>
      <path id="Tracé_122-2" data-name="Tracé 122" d="M66.947,250.482c7.753-7.636,22.537-26.163,24.243-25.515,61.449,25.571,102.282,13.535,144.751-19.486,7.566,7.644,15.286,15.445,23.008,23.245-46.941,46.555-132.122,56.638-192,21.755" transform="translate(22.661 68.698)" fill="#fff"/>
    </g>
  </g>
</svg>
