<svg xmlns="http://www.w3.org/2000/svg" width="22.319" height="17.124" viewBox="0 0 22.319 17.124">
  <path id="Tracé_690" data-name="Tracé 690" d="M133.982,4006.07a7.129,7.129,0,0,1-1.982-5.388c0-4.384,3.075-8.309,7.548-10.252l1.118,1.728c-4.175,2.253-4.991,5.182-5.316,7.031a4.452,4.452,0,0,1,2.415-.385,4.382,4.382,0,0,1-.343,8.75,4.913,4.913,0,0,1-1.868-.395A4.75,4.75,0,0,1,133.982,4006.07Zm12.517,0a7.132,7.132,0,0,1-1.982-5.388c0-4.384,3.075-8.309,7.548-10.252l1.118,1.728c-4.175,2.253-4.991,5.182-5.316,7.031a4.453,4.453,0,0,1,2.415-.385,4.382,4.382,0,0,1-.343,8.75,4.917,4.917,0,0,1-1.868-.395A4.749,4.749,0,0,1,146.5,4006.07Z" transform="translate(-132 -3990.43)" fill="#3159de"/>
</svg>
